<?xml version="1.0" encoding="UTF-8"?>
<!DOCTYPE svg PUBLIC "-//W3C//DTD SVG 1.1//EN" "http://www.w3.org/Graphics/SVG/1.1/DTD/svg11.dtd">
<!-- Creator: CorelDRAW X6 -->
<svg xmlns="http://www.w3.org/2000/svg" xml:space="preserve" width="200mm" height="90mm" version="1.1" style="shape-rendering:geometricPrecision; text-rendering:geometricPrecision; image-rendering:optimizeQuality; fill-rule:evenodd; clip-rule:evenodd"
viewBox="0 0 2000000 900000"
 xmlns:xlink="http://www.w3.org/1999/xlink">
 <defs>
  <style type="text/css">
   <![CDATA[
    .fil0 {fill:#CF005D}
    .fil1 {fill:#CF005D;fill-rule:nonzero}
   ]]>
  </style>
 </defs>
 <g id="Ebene_x0020_1">
  <metadata id="CorelCorpID_0Corel-Layer"/>
  <g id="_875458096">
   <path class="fil0" d="M1793208 404658l0 -8616c-75,-1419 -193,-2748 -360,-3948l-85 -654 -687 -407c-10799,-6397 -24695,-10128 -38633,-10425 -311,-1835 -1965,-14758 -2226,-16584 13243,-3742 25837,-10914 34685,-20081l497 -493 -105 -614c-639,-5002 -2597,-11802 -4280,-15992l-275 -693 -716 -144c-12044,-3403 -26596,-3331 -39818,0 -917,-1657 -5711,-13494 -6428,-15281 11794,-7201 22077,-17300 28332,-28208l413 -600 -413 -804c-1707,-4163 -5211,-10220 -8269,-14132l-413 -558 -578 0c-12595,-229 -26487,3560 -38778,10168 -1213,-1500 -9094,-11882 -10199,-13392 9483,-9811 16923,-22345 20066,-34699l219 -635 -522 -550c-2840,-3743 -7856,-8958 -11578,-11716l-543 -579 -551 300c-12354,3037 -24895,10368 -34762,19953 -1570,-1206 -12044,-9394 -13448,-10495 6530,-11631 10403,-25280 10403,-37772l0 -1707 -557 -346c-3750,-2949 -9846,-6449 -14200,-8297l-663 -300 -635 321c-10996,6237 -21110,16457 -28137,28243 -1764,-737 -14443,-6043 -16098,-6717 1655,-6586 2646,-13448 2763,-20263 0,-6904 -900,-13554 -2763,-19654l-211 -751 -533 -212c-4318,-1887 -11046,-3725 -16013,-4279l-606 -183 -413 444c-9123,8848 -16288,21368 -20186,34675 -1863,-187 -14898,-1870 -16902,-2318 0,-13575 -3813,-27573 -10393,-38446l-384 -571 -614 -187c-2241,-273 -5050,-414 -7894,-423l-551 0c-2846,8 -5693,149 -8008,423l-681 187 -283 571c-6547,10873 -10294,24871 -10583,38573 -1785,321 -15134,2004 -16993,2191 -3810,-13307 -11032,-25922 -20091,-34735l-557 -483 -773 99c-4801,737 -11638,2575 -15737,4290l-656 172 -89 766c-1852,6159 -2702,12838 -2702,19851 -102,6745 931,13553 2593,20126 -1743,695 -14443,6212 -16157,6854 -7155,-11786 -17392,-22087 -28272,-28243l-737 -321 -469 300c-4424,1792 -10619,5348 -14277,8212l-618 431 0 1831c0,12185 3754,25886 10471,37648 -1447,1101 -11215,8629 -12637,9758 -9754,-9490 -22281,-16877 -34706,-20059l-557 -109 -593 370c-3701,2921 -8763,7892 -11822,11723l-264 543 137 533c3123,12347 10344,24807 19887,34752 -1115,1475 -9321,12573 -10446,13917 -12030,-6664 -25968,-10527 -38612,-10343l-751 0 -448 560c-2741,3747 -6230,9727 -8171,14136l-310 656 310 702c6174,10989 16556,21169 28381,28321 -737,1771 -5623,13563 -6367,15193 -13395,-3287 -27968,-3386 -40019,165l-653 186 -208 607c-1866,4171 -3761,10893 -4339,15920l-127 699 374 441c8950,9015 21544,16240 34745,20027 -212,1764 -1866,14841 -2156,16677 -13931,206 -27940,3927 -38837,10349l-547 300 -49 751c-304,2442 -392,5309 -392,8234 0,2993 88,5949 392,8209l49 751 547 359c10897,6476 24906,10073 38837,10259 194,1860 2156,15310 2304,17177 -13349,3955 -25827,11114 -34699,20161l-441 572 137 765c745,4871 2554,11795 4202,15909l360 551 592 186c12203,3418 26699,3321 40037,0 847,1668 5849,13498 6608,15303 -11734,7035 -22007,17198 -28297,28209l-282 579 282 656c1881,4373 5373,10547 8294,14414l431 427 666 0c12492,317 26568,-3584 38612,-10337 1157,1590 9331,12182 10417,13657 -9479,9735 -16771,22270 -20009,34547l-177 642 406 659c3009,3796 7800,8633 11522,11639l667 434 628 -195c12174,-3118 24775,-10304 34671,-19843 1481,1111 12283,9317 13716,10432 -6488,11976 -10273,25667 -10273,38103l0 1302 469 468c3852,2890 9804,6305 14326,8326l695 184 579 -324c10915,-6069 21255,-16472 28416,-28448 1672,751 13250,5443 14958,6180 -1708,6558 -2660,13286 -2660,20002 0,6855 952,13772 2804,19939l219 558 526 258c4381,1809 10908,3725 15875,4455l751 113 483 -463c9067,-8963 16267,-21497 19925,-34582 1859,123 15247,2032 17142,2219 303,13808 4113,27810 10474,38661l427 572 592 95c4809,669 11878,669 16288,0l751 -95 353 -572c6573,-10851 10361,-24853 10584,-38661 1792,-374 14495,-2096 16157,-2219 3746,13166 10879,25771 20196,34629l413 518 744 -102c4823,-843 11748,-2558 15847,-4265l660 -360 92 -614c1672,-6188 2857,-13035 2857,-19883 -190,-6780 -1185,-13645 -2857,-20203 1672,-737 13938,-5986 15645,-6738 7084,11776 17449,22048 28265,28346l730 239 441 -183c4410,-1806 10591,-5384 14305,-8378l752 -423 0 -1708c0,-12284 -3923,-25881 -10372,-37695 1496,-1117 11575,-8991 13035,-10096 9874,9542 22574,16813 34590,20017l917 179 441 -380c3715,-3003 8841,-8012 11624,-11794l357 -448 -191 -642c-2949,-12354 -10227,-24881 -19815,-34759 1100,-1450 9232,-12192 10339,-13646 12175,6780 26120,10489 38612,10344l773 0 324 -565c3059,-3750 6477,-9991 8297,-14305l191 -634 -303 -604c-5814,-10841 -16151,-20996 -27835,-28382 494,-1709 5430,-13457 6061,-15110 13342,3300 27757,3431 39991,-90l635 -103 222 -682c1955,-4334 3719,-11011 4410,-15985l0 -579 -360 -565c-8819,-9116 -21470,-16247 -34519,-20009 261,-1778 1778,-14422 2113,-16192 13995,-386 27947,-4045 38746,-10473l687 -352 85 -640c167,-1207 285,-2569 360,-4008zm-120520 103087l3768 5963 3454 6008 4649 -6008 1214 -1497 -13085 -4466zm-186619 55221c-194,-896 -554,-1615 -1654,-2117l-8019 -2956 -1813 5073 -642 1852 -53 117 7309 2737c2004,886 3941,-896 4636,-2854 236,-536 441,-1206 236,-1852zm62727 21311l-2480 -6113 -2508 -6615 -2176 6615 -2145 6520 9309 -407zm86872 -26067c0,-1915 -490,-3623 -1401,-5276 -2649,-4936 -8935,-6528 -13832,-3715 -3454,1852 -5218,5368 -5218,8991 110,1655 512,3507 1489,5070 275,491 607,1002 1101,1538 3076,3672 8498,4527 12665,2103 1146,-568 2060,-1310 2797,-2103 1531,-1852 2399,-4336 2399,-6608zm68626 -62452l-23358 -12864 -2991 5381 28032 15646 10802 -19360 -4816 -2577 -7669 13774zm-308589 -16048l-27478 16048c984,1922 2046,4180 3249,6037l27535 -16090c-1345,-2426 -2103,-3721 -3306,-5995zm17632 25626l-14884 12863 7585 -22049c-1344,-1888 -1962,-3204 -3369,-4940l-26677 18102c1192,1789 2653,3443 3919,5296l16041 -11113 -7525 22214c1302,1468 2618,3715 4459,5211l24681 -21167c-1366,-1464 -3020,-2766 -4230,-4417zm16316 24363l-16937 20098 -5278 -4576 17516 -19512c-2777,-2571 -4893,-4887 -7581,-7277l3901 -3913c6668,6303 12538,11190 19897,17117l-3376 4311c-2681,-2099 -5443,-4121 -8142,-6248zm19896 15060c4336,2357 8573,4819 13314,7063l2844 -4706c-6565,-3391 -12725,-7268 -18246,-11099l-18112 26582c6869,4548 13145,8343 20200,12418l2921 -4695 -14605 -8605 4932 -6933 9673 5818 2819 -4522c-3108,-1708 -6346,-3680 -9736,-5754l3996 -5567zm42528 18207l0 1743c-491,4265 -3383,8596 -8075,9140l1086 14898c-2176,-497 -4635,-1221 -6956,-2205l-251 -14015 -6297 -2693 -5105 12369c-2067,-685 -4127,-1345 -6145,-2335l6470 -15050 772 -1852 5264 -12418 14337 5532c3189,1139 4656,3975 4900,6886zm27513 314l-2325 19445 -9341 -21326c-2191,-426 -3556,-991 -5761,-1344l-7331 31447c2268,607 4445,850 6780,1256l3927 -19315 9468 21520c2149,324 4583,999 7084,935l3507 -32480c-1842,-102 -4025,194 -6008,-138zm33394 14884l6925 16799c-2265,94 -4374,324 -6399,558l-2138 -5430 -13847 385 -1587 5680c-2212,-194 -4276,-258 -6474,-258l5973 -17734 4251 -13455 208 -427 7059 -317 360 853 5669 13346zm30568 -19721c-9310,2039 -16475,3736 -25710,5169l857 5362c3415,-540 6537,-945 10142,-1401l4657 25831 6854 -1295 -5559 -25756c3527,-875 6773,-1764 10280,-2582l-1521 -5328zm7578 -2698l10590 30233c2060,-717 4272,-1344 6361,-2255l-10273 -30095c-2819,959 -4114,1344 -6678,2117zm48140 -5493c1358,2384 2021,5140 2131,7958 0,2198 -470,4453 -1380,6499 -1488,2963 -3686,5613 -6752,7383 -7468,4365 -17127,1757 -21660,-5922 -159,-441 -360,-925 -664,-1461 -910,-2046 -1351,-4301 -1541,-6499 190,-5658 2949,-10880 8018,-13815 7585,-4299 17378,-1728 21848,5857zm11751 -30043l13229 14263 -22207 -6551c-1849,1404 -3087,1895 -4720,3320l19325 25978c1647,-1284 3355,-2847 4900,-4163l-11727 -15628 22427 6752c1545,-1336 3742,-2843 5256,-4744l-22370 -23654c-1192,1295 -2571,2996 -4113,4427zm18052 -19744l31802 10445c-744,942 -1337,1845 -2010,2798 -551,716 -1214,1439 -1655,2370l-5567 -2006 -8682 10843 3172 4971c-1298,1475 -2759,3073 -4410,4706l-12598 -20884 -4656 -7698 4604 -5545zm-118872 -275686c3474,166 6699,554 9951,1013l-1711 -6657 -2148 -6862 -3224 6862 -2868 5644zm-71533 2963c427,5666 5450,9797 10901,9331 5379,-554 9398,-4850 9398,-10262 194,-268 0,-579 0,-931 -470,-5694 -5370,-9691 -11046,-9155 -5394,399 -9454,4671 -9253,10086l0 931zm109079 -2963l7158 2311c1957,561 4547,-2509 4547,-5179 0,-1274 -441,-2402 -2149,-2776 -2645,-1023 -4459,-1475 -7344,-2205l-1475 4981 -737 2868zm-143295 10612l882 1502 3238 5599 6717 -3528c628,-314 984,-1100 1104,-2071 131,-3033 -2060,-7140 -5245,-5224 -2480,1298 -3990,2191 -6696,3722zm28388 -7084l0 -1496c-166,-8234 6145,-15011 14439,-15674 8767,-854 16552,5588 17290,14401l0 1273c0,8223 -6209,15254 -14644,16027 -8516,751 -16341,-5662 -17085,-14531zm72069 7309c-2671,-28 -3905,-28 -6523,-28l7930 -16453 7194 -14951 7136 737 3750 14214 5183 19099c-2399,-448 -4265,-811 -6534,-942l-1845 -5987c-4713,-730 -8971,-959 -13342,-1146l-2949 5457zm38449 5878c-2565,-745 -4459,-1062 -7278,-1867l5197 -17716 3796 -12629c5478,1358 10685,3136 15896,4833 2949,906 4526,4243 4829,7796 194,4826 -2205,10068 -7076,11165l1894 14281c-2286,-949 -3976,-1658 -6509,-2653l-1654 -12481 -6110 -1877 -2985 11148zm-145919 -4601l-1771 -3182c4656,-2956 9666,-5521 14495,-8103 5684,-3136 13706,4463 13141,11285 -106,1203 -441,2293 -1153,3401l11624 8456c-2191,1027 -3849,1902 -6463,3041l-10181 -7443 -5617 3009 5980 9888c-2314,1475 -3722,2392 -6428,3969l-13627 -24321zm81068 -26313l2812 26052 6840 -716 -2678 -25862 10347 -635 -391 -5807c-11557,667 -16316,1133 -27753,2840l762 5511 10061 -1383zm100020 45681l6917 -13321 18666 -8675c-1965,-1411 -4089,-2395 -6057,-3690l-12859 5856 -2371 -13959c-2684,-1274 -4296,-1835 -7094,-2963l3739 20305 -6925 13159 5984 3288zm-79404 194331c27834,0 50462,-22593 50462,-50422 0,-27830 -22628,-50450 -50462,-50553 -27823,0 -50429,22723 -50429,50553 0,27829 22606,50422 50429,50422zm0 -4919c-25026,0 -45469,-20533 -45469,-45503 0,-25149 20443,-45579 45469,-45579 25189,0 45449,20430 45449,45579 0,25080 -20363,45503 -45449,45503zm126450 4354c2092,1357 4519,3004 6724,2239 1496,-454 2783,-2094 3609,-5050 9867,-33452 9867,-62025 0,-95078 -607,-2074 -1570,-4217 -3306,-4991 -1757,-631 -3968,93 -7133,2239l-64636 43949c-2501,1681 -3775,3975 -3775,6346 0,2356 1274,4650 3775,6304l64742 44042zm-14252 -139871c84,-1336 -738,-3025 -2611,-4867 -24010,-25403 -48673,-39609 -82497,-47652 -1901,-494 -4099,-942 -5567,353 -1513,1213 -1947,3556 -1644,7062l5574 78253c177,2965 1514,5317 3493,6508 2169,1230 4766,1002 7461,-296l70474 -34014c2258,-1095 4830,-2290 5317,-4699 0,-151 84,-344 0,-648zm-224088 1248c296,2356 2977,3557 5320,4657l70382 34193c2798,1337 5401,1337 7525,231 1983,-1296 3267,-3549 3443,-6542l5687 -78079c310,-3775 -222,-5987 -1580,-7144 -1486,-1281 -3691,-921 -5807,-529 -33736,8114 -58318,22369 -82550,47638 -1958,2212 -2868,4073 -2420,5575zm-14133 38502c-2300,-1489 -4748,-3186 -6752,-2297 -1633,492 -2825,2204 -3679,4981 -9783,33572 -9783,62035 0,95170 663,2157 1407,4307 3369,4851 1605,668 3976,0 7062,-2129l64591 -44001c2395,-1612 3855,-3907 3855,-6208 0,-2501 -1460,-4699 -3855,-6383l-64591 -43984zm15152 140036c0,1337 910,3004 2611,4775 24239,25492 48782,39681 82490,47591 2155,655 4272,976 5768,-195 1524,-1135 1958,-3478 1700,-7164 0,-117 -5732,-78245 -5732,-78245 -240,-2963 -1362,-5223 -3437,-6415 -2102,-1233 -4720,-1233 -7531,48l-70309 34224c-2452,1144 -5112,2432 -5479,4733 0,152 -81,448 -81,648zm132204 51036c1192,938 3147,1213 6152,461 33623,-8068 58283,-22317 82317,-47535 1433,-1660 3003,-3369 2537,-5264 -441,-1819 -1986,-3466 -5267,-5009l-70492 -34210c-2674,-1261 -5271,-1261 -7423,-138 -2067,1309 -3333,3528 -3527,6622l-5698 78031c-53,2558 -356,5471 1401,7042zm-148767 -288809l20864 23241c2914,3132 6124,2748 10340,-547 26363,-20683 60187,-32914 96230,-32914 36082,0 69928,12188 96545,32914 4163,3073 7281,3679 10336,547l20878 -23241c2363,-2572 2363,-6110 -2166,-9903 -34996,-27245 -78190,-44062 -125677,-44062 -47206,0 -91017,16817 -125388,44186 -4498,3669 -4297,7207 -1962,9779zm311595 213699l-30071 -10266c-1570,-586 -5676,-586 -7825,4705 -24281,58238 -80810,98090 -146265,98090 -65539,0 -123109,-40770 -146350,-98999 -1728,-4382 -5951,-4382 -7549,-3796l-29905 10266c-3246,1171 -5193,4051 -3492,8206 29372,74957 102414,127874 187296,127874 84857,0 158232,-53281 187703,-128191 1527,-3921 -318,-6718 -3542,-7889zm-372869 -16054l29994 -8709c2811,-827 5125,-3776 4903,-7442 -10770,-55866 2911,-101155 35659,-137461 3313,-2356 3665,-7207 501,-10519l-21805 -21918c-2117,-2424 -5969,-2424 -9275,945 -41790,43986 -62893,111489 -47413,180501 854,3307 3475,5740 7436,4603zm338113 -185404c-2942,-3609 -7824,-3069 -9232,-557l-21731 21830c-3182,3312 -2872,8163 427,10519 32798,36306 46503,81499 35747,137461 -240,3666 2067,6615 4932,7442l30042 8709c4004,1137 6558,-1296 7416,-4720 15458,-68895 -5708,-136626 -47601,-180684zm-148840 166215c-16404,0 -30050,-13643 -30050,-30265 0,-13171 8544,-24726 21216,-28571 124,-1364 476,-8220 476,-8220l15262 0c0,0 363,6311 529,7669 13222,3300 22828,15313 22828,29122 0,16622 -13656,30265 -30261,30265z"/>
   <path class="fil1" d="M596232 458405l935 18043c142,2695 -1761,5112 -4425,5630 -7630,1406 -18126,3121 -24717,3121 -33071,0 -43157,-12676 -43157,-54128l0 -63349 -12683 0c-3027,0 -5468,-2448 -5468,-5467l0 -18730c0,-3021 2441,-5445 5468,-5445l12683 0 0 -22273c0,-2526 1707,-4719 4124,-5308l21949 -5338c1622,-386 3321,-31 4635,999 1320,1048 2115,2609 2115,4291l0 27629 33376 0c3049,0 5466,2424 5466,5445l0 18730c0,3019 -2417,5467 -5466,5467l-33376 0 0 58739c0,20305 721,27356 14948,27356 5274,0 13486,-385 17910,-595 2934,-62 5544,2148 5683,5183zm-103580 -49215c0,52321 -19881,75668 -64468,75668 -44796,0 -64793,-23347 -64793,-75668 0,-51562 19997,-74553 64793,-74553 43978,0 64468,23663 64468,74553zm-33372 0c0,-32137 -8737,-44626 -31096,-44626 -23179,0 -31389,11671 -31389,44626 0,29875 4998,46025 31389,46025 25990,0 31096,-16859 31096,-46025zm764787 49215l934 18043c132,2695 -1761,5112 -4427,5630 -7637,1406 -18127,3121 -24701,3121 -33088,0 -43171,-12676 -43171,-54128l0 -63349 -12691 0c-3018,0 -5462,-2448 -5462,-5467l0 -18730c0,-3021 2444,-5445 5462,-5445l12691 0 0 -22273c0,-2526 1706,-4719 4140,-5308l21924 -5338c1624,-386 3321,-31 4651,999 1313,1048 2109,2609 2109,4291l0 27629 33382 0c3040,0 5460,2424 5460,5445l0 18730c0,3019 -2420,5467 -5460,5467l-33382 0 0 58739c0,20305 711,27356 14961,27356 5250,0 13469,-385 17894,-595 2938,-62 5547,2148 5686,5183zm-880673 15656c743,1683 580,3630 -409,5190 -1020,1553 -2719,2471 -4587,2471l-25466 0c-2138,0 -4116,-1281 -4966,-3243l-32609 -73374c-16226,-115 -30290,-982 -37898,-1514l0 72678c0,3021 -2417,5453 -5438,5453l-22777 0c-3019,0 -5460,-2432 -5460,-5453l0 -184052c0,-2780 2085,-5105 4858,-5413 29195,-3300 52574,-3639 61255,-3639 2989,0 4588,17 4588,17 56027,0 67813,33101 67813,60829 0,23164 -11068,39892 -33813,51176l34909 78874zm-69024 -159291l-11996 0c-13408,0 -21046,1003 -24915,1784l0 56745c6394,440 18729,1096 35320,919 21394,-225 34662,-11585 34662,-29619 0,-14420 -8674,-29829 -33071,-29829zm455751 68492l0 95248c0,1591 -687,3089 -1869,4124 -1204,1043 -2803,1505 -4339,1281 -11147,-1560 -16451,-5050 -21728,-9105 -217,100 -24886,10048 -46912,10048 -26525,0 -41737,-16744 -41737,-46017 0,-28577 13923,-41220 48083,-43778l35678 -2865 0 -8658c0,-10959 -6513,-17262 -17849,-17262 -15632,0 -37938,1830 -49816,2898 -1486,160 -2989,-326 -4120,-1306 -1097,-966 -1784,-2402 -1838,-3879l-717 -18210c-109,-2774 1868,-5183 4590,-5592 10625,-1700 37095,-5552 53631,-5552 33396,0 48943,15461 48943,48625zm-64490 36247c-12883,1213 -19010,7098 -19010,18444 0,6959 1922,18746 14690,18746 15172,0 35769,-5725 35986,-5793l0 -33072 -31666 1675zm312106 -36247l0 95248c0,1591 -700,3089 -1869,4124 -1219,1043 -2803,1505 -4339,1281 -11153,-1560 -16451,-5050 -21724,-9105 -228,100 -24887,10048 -46916,10048 -26531,0 -41754,-16744 -41754,-46017 0,-28577 13933,-41220 48104,-43778l35674 -2865 0 -8658c0,-10959 -6509,-17262 -17856,-17262 -15624,0 -37931,1830 -49826,2898 -1483,160 -2989,-326 -4117,-1306 -1096,-966 -1783,-2402 -1844,-3879l-711 -18210c-108,-2774 1868,-5183 4587,-5592 10628,-1700 37112,-5552 53641,-5552 33403,0 48950,15461 48950,48625zm-64490 36247c-12890,1213 -19007,7098 -19007,18444 0,6959 1912,18746 14691,18746 15162,0 35765,-5725 35982,-5793l0 -33072 -31666 1675zm-76602 -82516c-14514,863 -28778,9151 -37661,15459l0 -8927c0,-3021 -2447,-5445 -5466,-5445l-21921 0c-3020,0 -5467,2424 -5467,5445l0 132744c0,3021 2447,5453 5467,5453l21921 0c3019,0 5466,-2432 5466,-5453l0 -91755c4942,-4117 20242,-15594 38481,-17208 2802,-240 4972,-2603 4972,-5429l0 -19456c0,-1506 -609,-2928 -1730,-3946 -1073,-1059 -2586,-1624 -4062,-1482zm278041 118500l717 18212c115,2773 -1869,5184 -4587,5600 -10635,1707 -27560,5553 -44102,5553 -44797,0 -64778,-22992 -64778,-74555l24 0c0,-379 -24,-735 -24,-1113 0,-51562 19981,-74553 64778,-74553 16542,0 33467,3852 44102,5552 2718,409 4702,2818 4587,5592l-717 18210c-55,1477 -742,2913 -1839,3879 -1127,980 -2640,1466 -4116,1306 -11894,-1068 -26392,-4612 -42017,-4612 -23177,0 -31395,11671 -31395,44626 0,1259 30,2456 37,3677 16,710 16,1452 47,2139 31,1051 68,2071 126,3075 36,958 80,1907 151,2812 31,500 68,964 109,1443 2000,23789 10835,32578 30925,32578 15625,0 30123,-3545 42017,-4595 1476,-154 2989,308 4116,1297 1097,966 1784,2411 1839,3877z"/>
   <path class="fil1" d="M253513 604845l9853 0c13392,0 26404,-5308 26404,-20341 0,-12129 -9349,-14531 -19581,-14531l-9223 0 -7453 34872zm252 -42451l15034 0c16424,0 29690,3537 29690,22110 0,18949 -17056,27920 -34238,27920l-12382 0 -8338 38154 -8716 0 18950 -88184z"/>
   <path class="fil1" d="M316156 645271c14908,0 21731,-13392 23499,-26910 -2653,0 -5180,-252 -7833,-252 -10739,0 -28173,1643 -28173,15792 0,7328 6065,11370 12507,11370zm28553 -9979c-1263,4926 -2149,10862 -2400,15286l-7959 0c378,-3412 631,-6698 1262,-9475l-251 0c-5434,8085 -12509,10992 -21984,10992 -9980,0 -18444,-7453 -18444,-18069 0,-18824 21223,-22741 37016,-22741 3285,0 6190,252 8718,508 253,-1894 378,-3793 378,-6444 0,-8845 -4928,-13896 -13770,-13896 -7453,0 -14783,3413 -19076,5555l883 -8083c4548,-1896 11876,-4296 19456,-4296 13897,0 21224,7579 21224,20971 0,2528 -504,7202 -1641,12256l-3412 17436z"/>
   <path class="fil1" d="M369263 597641c758,-3663 1390,-7454 1769,-11498l7959 0c-380,4044 -758,7456 -1390,9728l253 0c4043,-6317 9602,-11242 17940,-11242 2652,0 4800,508 6948,885l-1896 8464c-2147,-887 -4547,-1011 -6820,-1011 -13013,0 -18193,14278 -20593,25897l-6570 31714 -8465 0 10865 -52937z"/>
   <path class="fil1" d="M425365 571742l9097 -3157 -3918 17558 16803 0 -1642 6824 -16550 0 -6822 31834c-885,4301 -1895,8467 -1895,12637 0,5054 2653,7833 7326,7833 2402,0 4549,-505 6823,-1768l-759 6822c-2399,1137 -4799,1770 -8084,1770 -8971,0 -14024,-5053 -14024,-12003 0,-5562 2275,-15795 2907,-18570l6189 -28555 -12885 0 1768 -6824 12634 0 3032 -14401z"/>
   <path class="fil1" d="M456035 596378c757,-4296 1263,-7073 1516,-10235l7960 0c-379,4044 -757,7456 -1390,9728l253 0c4421,-6821 12507,-11242 20467,-11242 11623,0 20213,6570 20213,18699 0,4420 -1010,9220 -1895,13264l-7202 33986 -8338 0 7328 -35501c884,-4170 1389,-6949 1389,-11245 0,-7579 -4296,-12379 -12382,-12379 -13896,0 -21351,13767 -24382,28548l-6315 30577 -8340 0 11118 -54200z"/>
   <path class="fil1" d="M563188 613811c125,-1767 379,-3411 379,-4925 0,-10487 -4424,-17433 -14782,-17433 -12380,0 -21477,10612 -23623,22358l38026 0zm-39417 6824c-253,1642 -379,3413 -379,5179 0,12382 8212,19457 19581,19457 7961,0 13770,-2150 18827,-4295l-632 7706c-3791,1389 -8720,3413 -19205,3413 -15034,0 -26531,-8974 -26531,-26281 0,-21602 12634,-41185 33353,-41185 15161,0 22741,9349 22741,24003 0,3916 -505,7960 -884,12003l-46871 0z"/>
   <path class="fil1" d="M588234 597641c758,-3663 1391,-7454 1770,-11498l7958 0c-379,4044 -758,7456 -1388,9728l250 0c4045,-6317 9604,-11242 17941,-11242 2653,0 4800,508 6949,885l-1895 8464c-2150,-887 -4550,-1011 -6821,-1011 -13015,0 -18195,14278 -20594,25897l-6570 31714 -8466 0 10866 -52937z"/>
   <polygon class="fil1" points="679946,650578 670346,650578 661754,586143 669841,586143 677041,641858 677295,641858 706984,586143 715955,586143 "/>
   <path class="fil1" d="M740103 645271c16678,0 26024,-17686 26024,-32847 0,-12129 -5433,-20971 -17938,-20971 -17815,0 -26155,17433 -26155,33857 0,11119 6824,19961 18069,19961zm9095 -60642c16424,0 25648,10991 25648,27670 0,21476 -13520,39796 -35756,39796 -15919,0 -25772,-12003 -25772,-28047 0,-21604 14023,-39419 35880,-39419z"/>
   <path class="fil1" d="M792590 596378c755,-4296 1263,-7073 1516,-10235l7958 0c-379,4044 -758,7456 -1391,9728l254 0c4421,-6821 12508,-11242 20466,-11242 11623,0 20215,6570 20215,18699 0,4420 -1012,9220 -1896,13264l-7199 33986 -8341 0 7328 -35501c887,-4170 1392,-6949 1392,-11245 0,-7579 -4300,-12379 -12383,-12379 -13898,0 -21349,13767 -24382,28548l-6320 30577 -8337 0 11120 -54200z"/>
   <path class="fil1" d="M909821 601432l9221 0c11749,0 26152,-4041 26152,-18194 0,-9979 -6950,-13265 -15919,-13265l-12759 0 -6695 31459zm-129 -39038l19962 0c14023,-380 24256,4548 24256,19707 0,14403 -10991,22993 -24886,23627l0 254c7325,1263 8208,5937 9471,10736l8341 33860 -8592 0 -7704 -32722c-2024,-6949 -5057,-8845 -12128,-8845l-10236 0 -8842 41567 -8845 0 19203 -88184z"/>
   <path class="fil1" d="M986968 645271c16674,0 26024,-17686 26024,-32847 0,-12129 -5430,-20971 -17941,-20971 -17812,0 -26149,17433 -26149,33857 0,11119 6821,19961 18066,19961zm9095 -60642c16424,0 25645,10991 25645,27670 0,21476 -13517,39796 -35753,39796 -15915,0 -25772,-12003 -25772,-28047 0,-21604 14023,-39419 35880,-39419z"/>
   <path class="fil1" d="M1047764 571742l9099 -3157 -3916 17558 16803 0 -1645 6824 -16546 0 -6824 31834c-886,4301 -1895,8467 -1895,12637 0,5054 2653,7833 7325,7833 2403,0 4549,-505 6824,-1768l-759 6822c-2400,1137 -4795,1770 -8083,1770 -8973,0 -14024,-5053 -14024,-12003 0,-5562 2275,-15795 2908,-18570l6188 -28555 -12887 0 1770 -6824 12633 0 3029 -14401z"/>
   <path class="fil1" d="M1086838 645271c14910,0 21727,-13392 23497,-26910 -2650,0 -5178,-252 -7832,-252 -10737,0 -28173,1643 -28173,15792 0,7328 6066,11370 12508,11370zm28551 -9979c-1262,4926 -2149,10862 -2400,15286l-7961 0c382,-3412 634,-6698 1266,-9475l-253 0c-5430,8085 -12508,10992 -21983,10992 -9979,0 -18445,-7453 -18445,-18069 0,-18824 21225,-22741 37018,-22741 3284,0 6191,252 8717,508 250,-1894 379,-3793 379,-6444 0,-8845 -4928,-13896 -13770,-13896 -7457,0 -14786,3413 -19077,5555l886 -8083c4542,-1896 11871,-4296 19453,-4296 13896,0 21224,7579 21224,20971 0,2528 -504,7202 -1642,12256l-3412 17436z"/>
   <path class="fil1" d="M1139944 597641c758,-3663 1387,-7454 1766,-11498l7963 0c-379,4044 -762,7456 -1392,9728l254 0c4042,-6317 9599,-11242 17941,-11242 2650,0 4799,508 6948,885l-1895 8464c-2150,-887 -4550,-1011 -6824,-1011 -13012,0 -18194,14278 -20594,25897l-6567 31714 -8466 0 10866 -52937z"/>
   <path class="fil1" d="M1188741 665737c-3913,7328 -8588,12128 -17307,12128 -2779,0 -5308,-376 -7707,-1767l1896 -6824c1391,1391 3286,1766 5178,1766 5561,0 9853,-5049 12257,-10105l5433 -10231 -9098 -64561 8340 0 6569 55462 252 0 30197 -55462 8590 0 -44600 79594z"/>
  </g>
 </g>
</svg>
